<mxfile host="Electron" modified="2023-12-08T16:11:33.551Z" agent="Mozilla/5.0 (Macintosh; Intel Mac OS X 10_15_7) AppleWebKit/537.36 (KHTML, like Gecko) draw.io/22.1.2 Chrome/114.0.5735.289 Electron/25.9.4 Safari/537.36" etag="gFMDhZKyR-5NBdnloMOB" version="22.1.2" type="device">
  <diagram name="第 1 页" id="g7MC9NgYhMIOstKCUi9z">
    <mxGraphModel dx="995" dy="734" grid="1" gridSize="10" guides="1" tooltips="1" connect="1" arrows="1" fold="1" page="1" pageScale="1" pageWidth="827" pageHeight="1169" math="0" shadow="0">
      <root>
        <mxCell id="0" />
        <mxCell id="1" parent="0" />
        <mxCell id="Q2U3eIDguRqmrn5DEOg9-1" value="" style="rounded=1;whiteSpace=wrap;html=1;" parent="1" vertex="1">
          <mxGeometry x="120" y="210" width="260" height="80" as="geometry" />
        </mxCell>
        <mxCell id="Q2U3eIDguRqmrn5DEOg9-2" value="&lt;font color=&quot;#99ccff&quot;&gt;Finger Dancing&lt;/font&gt;" style="text;html=1;strokeColor=none;fillColor=none;align=center;verticalAlign=middle;whiteSpace=wrap;rounded=0;" parent="1" vertex="1">
          <mxGeometry x="195" y="220" width="110" height="30" as="geometry" />
        </mxCell>
        <mxCell id="Q2U3eIDguRqmrn5DEOg9-3" value="CopyRight: Zhuang Yifei" style="text;html=1;strokeColor=none;fillColor=none;align=center;verticalAlign=middle;whiteSpace=wrap;rounded=0;" parent="1" vertex="1">
          <mxGeometry x="170" y="250" width="160" height="30" as="geometry" />
        </mxCell>
        <mxCell id="cFL7iqV5pQ6nerM8wdcM-2" value="" style="rounded=0;whiteSpace=wrap;html=1;" vertex="1" parent="1">
          <mxGeometry x="240" y="530" width="550" height="280" as="geometry" />
        </mxCell>
        <mxCell id="cFL7iqV5pQ6nerM8wdcM-3" value="FPGA" style="text;html=1;strokeColor=none;fillColor=none;align=center;verticalAlign=middle;whiteSpace=wrap;rounded=0;" vertex="1" parent="1">
          <mxGeometry x="245" y="540" width="60" height="30" as="geometry" />
        </mxCell>
      </root>
    </mxGraphModel>
  </diagram>
</mxfile>
